<svg width="194" height="810" viewBox="0 0 194 810" fill="none" xmlns="http://www.w3.org/2000/svg">
<path opacity="0.05" d="M2.99987 194L2.99987 126L13.9999 126L22.2499 146.5L66.4999 128.75L66.4999 63.75L22.2499 46L13.9999 66L2.99988 66L2.99988 0.499989L13.9999 0.499989L22.2499 21L179.5 82.5L179.5 108.25L22.2499 172.25L13.9999 194L2.99987 194ZM83.4999 122.25L153.75 95.75L83.4999 70.25L83.4999 122.25ZM2.99987 265.279L2.99987 199.529L13.7499 199.529L21.9999 220.529L111.25 220.529L111.25 199.529L126.25 199.529C129.417 206.029 131 213.363 131 221.529C131 229.696 129.25 235.363 125.75 238.529C122.25 241.696 117.083 243.446 110.25 243.779C115.25 245.446 119.75 248.863 123.75 254.029C128.583 260.196 131 268.363 131 278.529C131 283.029 130.417 287.279 129.25 291.279C128.083 295.446 126.917 298.446 125.75 300.279L124 303.279L94.4999 303.279L94.4999 288.279L109.5 285.029C110.5 284.029 111 281.279 111 276.779C111 272.279 110.333 267.946 109 263.779C107.833 259.613 106.333 256.363 104.5 254.029C100.5 249.363 96.4165 246.029 92.2499 244.029L21.9999 244.029L13.7499 265.279L2.99987 265.279ZM57.7499 355.17C43.4165 355.17 33.6665 357.337 28.4999 361.67C23.3332 366.003 20.7499 372.587 20.7499 381.42C20.7499 390.253 22.0832 397.503 24.7499 403.17L12.2499 408.17C11.4165 407.503 10.3332 406.503 8.99986 405.17C7.66653 404.003 5.83319 400.92 3.49986 395.92C1.33319 390.92 0.249861 385.42 0.249861 379.42C0.249862 364.253 4.49986 352.503 12.9999 344.17C21.6665 335.837 34.2499 331.67 50.7499 331.67L108.25 331.67L108.25 318.42L123 318.42L147 342.42L147 355.17L128 355.17L128 397.17L108.25 397.17L108.25 355.17L57.7499 355.17ZM2.99985 528.471L2.99986 422.221L19.9999 422.221L107.75 498.721L107.75 443.471L93.2499 438.721L93.2499 424.471L127.5 424.471L127.5 524.971L107.75 524.971L23.4999 452.221L23.4999 510.721L38.4999 515.471L38.4999 528.471L2.99985 528.471ZM2.99985 616.854L2.99985 551.104L13.7499 551.104L21.9999 572.104L111.25 572.104L111.25 551.104L126.25 551.104C129.417 557.604 131 565.104 131 573.604C131 582.27 128.917 588.104 124.75 591.104C120.75 594.104 114.583 595.604 106.25 595.604L21.9999 595.604L13.7499 616.854L2.99985 616.854ZM159.75 596.604C155.917 592.77 154 588.104 154 582.604C154 577.104 155.917 572.437 159.75 568.604C163.583 564.77 168.25 562.854 173.75 562.854C179.25 562.854 183.917 564.77 187.75 568.604C191.583 572.437 193.5 577.104 193.5 582.604C193.5 588.104 191.583 592.77 187.75 596.604C183.917 600.437 179.25 602.354 173.75 602.354C168.25 602.354 163.583 600.437 159.75 596.604ZM0.499847 698.611C0.499848 679.778 5.83318 664.445 16.4998 652.611C27.3332 640.945 43.0832 635.111 63.7499 635.111C84.4165 635.111 100.75 641.111 112.75 653.111C124.917 665.111 131 679.111 131 695.111C131 733.111 108.5 752.111 63.4998 752.111L63.4999 659.361L62.2499 659.361C50.4165 659.361 40.4165 663.528 32.2499 671.861C24.0832 680.195 19.9998 691.528 19.9998 705.861C19.9998 712.028 20.6665 717.861 21.9998 723.361C23.4998 728.861 24.9998 732.861 26.4998 735.361L28.4998 738.861L15.4998 746.111C15.1665 745.611 14.5832 744.861 13.7498 743.861C13.0832 743.028 11.9165 741.111 10.2498 738.111C8.58318 735.111 7.08318 731.861 5.74985 728.361C2.24985 719.528 0.499847 709.611 0.499847 698.611ZM79.4999 728.861C89.8332 728.028 97.6665 724.611 103 718.611C108.5 712.778 111.25 705.111 111.25 695.611C111.25 686.278 108.583 678.528 103.25 672.361C98.0832 666.195 90.1665 662.195 79.4999 660.361L79.4999 728.861ZM4.49984 805.033C1.66651 802.2 0.249843 798.7 0.249843 794.533C0.249843 790.367 1.66651 786.867 4.49984 784.033C7.33318 781.2 10.8332 779.783 14.9998 779.783C19.1665 779.783 22.6665 781.2 25.4998 784.033C28.3332 786.867 29.7498 790.367 29.7498 794.533C29.7498 798.7 28.3332 802.2 25.4998 805.033C22.6665 807.867 19.1665 809.283 14.9998 809.283C10.8332 809.283 7.33318 807.867 4.49984 805.033Z" fill="white"/>
</svg>
