<svg width="112" height="29" viewBox="0 0 112 29" fill="none" xmlns="http://www.w3.org/2000/svg">
<g id="skilled">
<path id="Path" d="M9.68401 28.432C7.52401 28.432 5.64601 27.922 4.05001 26.902C2.45401 25.882 1.36801 24.508 0.792007 22.78L4.75201 20.908C5.25601 21.964 5.94001 22.792 6.80401 23.392C7.66801 23.992 8.62801 24.292 9.68401 24.292C10.452 24.292 11.04 24.136 11.448 23.824C11.856 23.512 12.06 23.08 12.06 22.528C12.06 22.24 11.988 21.994 11.844 21.79C11.7 21.586 11.484 21.4 11.196 21.232C10.908 21.064 10.548 20.92 10.116 20.8L6.76801 19.864C5.16001 19.408 3.92401 18.67 3.06001 17.65C2.19601 16.63 1.76401 15.424 1.76401 14.032C1.76401 12.808 2.07601 11.74 2.70001 10.828C3.32401 9.91599 4.20001 9.20199 5.32801 8.68599C6.45601 8.16999 7.75201 7.91199 9.21601 7.91199C11.136 7.91199 12.822 8.36199 14.274 9.26199C15.726 10.162 16.752 11.428 17.352 13.06L13.356 14.932C13.068 14.116 12.546 13.462 11.79 12.97C11.034 12.478 10.176 12.232 9.21601 12.232C8.52001 12.232 7.97401 12.376 7.57801 12.664C7.18201 12.952 6.98401 13.348 6.98401 13.852C6.98401 14.116 7.05601 14.356 7.20001 14.572C7.34401 14.788 7.57801 14.98 7.90201 15.148C8.22601 15.316 8.62801 15.472 9.10801 15.616L12.24 16.552C13.872 17.032 15.12 17.758 15.984 18.73C16.848 19.702 17.28 20.896 17.28 22.312C17.28 23.536 16.962 24.604 16.326 25.516C15.69 26.428 14.808 27.142 13.68 27.658C12.552 28.174 11.22 28.432 9.68401 28.432Z" fill="#13183F"/>
<path id="Path_2" d="M20.52 28V0.748047H25.92V18.208L23.904 17.56L32.58 8.34405H39.24L32.112 16.264L39.204 28H33.084L27.144 18.028L30.276 17.236L24.264 23.788L25.92 20.656V28H20.52Z" fill="#13183F"/>
<path id="Shape" fill-rule="evenodd" clip-rule="evenodd" d="M41.616 1.18005V6.58005H47.016V1.18005H41.616ZM41.616 8.34405V28.0001H47.016V8.34405H41.616Z" fill="#13183F"/>
<path id="Path_3" d="M50.976 28V0.748047H56.376V28H50.976Z" fill="#13183F"/>
<path id="Path_4" d="M60.336 28V0.748047H65.736V28H60.336Z" fill="#13183F"/>
<path id="Path_5" d="M79.164 28.432C77.076 28.432 75.264 27.97 73.728 27.046C72.192 26.122 71.004 24.88 70.164 23.32C69.324 21.76 68.904 20.032 68.904 18.136C68.904 16.168 69.342 14.416 70.218 12.88C71.094 11.344 72.276 10.132 73.764 9.24399C75.252 8.35599 76.932 7.91199 78.804 7.91199C80.364 7.91199 81.744 8.15799 82.944 8.64999C84.144 9.14199 85.158 9.83199 85.986 10.72C86.814 11.608 87.444 12.634 87.876 13.798C88.308 14.962 88.524 16.228 88.524 17.596C88.524 17.98 88.506 18.358 88.47 18.73C88.434 19.102 88.368 19.42 88.272 19.684H73.548V15.724H85.212L82.656 17.596C82.896 16.564 82.884 15.646 82.62 14.842C82.356 14.038 81.894 13.402 81.234 12.934C80.574 12.466 79.764 12.232 78.804 12.232C77.868 12.232 77.064 12.46 76.392 12.916C75.72 13.372 75.216 14.044 74.88 14.932C74.544 15.82 74.412 16.9 74.484 18.172C74.388 19.276 74.52 20.248 74.88 21.088C75.24 21.928 75.792 22.582 76.536 23.05C77.28 23.518 78.18 23.752 79.236 23.752C80.196 23.752 81.018 23.56 81.702 23.176C82.386 22.792 82.92 22.264 83.304 21.592L87.624 23.644C87.24 24.604 86.634 25.444 85.806 26.164C84.978 26.884 84 27.442 82.872 27.838C81.744 28.234 80.508 28.432 79.164 28.432Z" fill="#13183F"/>
<path id="Shape_2" fill-rule="evenodd" clip-rule="evenodd" d="M95.796 27.064C97.308 27.976 99.024 28.432 100.944 28.432C102.288 28.432 103.536 28.186 104.688 27.694C105.574 27.3157 106.318 26.7989 106.92 26.1437V28H111.96V0.748047H106.56V9.99442C106.045 9.48361 105.439 9.05949 104.742 8.72205C103.626 8.18205 102.348 7.91205 100.908 7.91205C99.036 7.91205 97.344 8.36805 95.832 9.28005C94.32 10.192 93.12 11.422 92.232 12.97C91.344 14.518 90.9 16.252 90.9 18.172C90.9 20.068 91.338 21.796 92.214 23.356C93.09 24.916 94.284 26.152 95.796 27.064ZM104.184 22.888C103.44 23.344 102.576 23.572 101.592 23.572C100.608 23.572 99.726 23.344 98.946 22.888C98.166 22.432 97.56 21.796 97.128 20.98C96.696 20.164 96.48 19.228 96.48 18.172C96.48 17.116 96.696 16.186 97.128 15.382C97.56 14.578 98.166 13.942 98.946 13.474C99.726 13.006 100.608 12.772 101.592 12.772C102.576 12.772 103.44 13 104.184 13.456C104.928 13.912 105.51 14.548 105.93 15.364C106.35 16.18 106.56 17.116 106.56 18.172C106.56 19.228 106.35 20.164 105.93 20.98C105.51 21.796 104.928 22.432 104.184 22.888Z" fill="#13183F"/>
</g>
</svg>
